<svg width="498" height="610" viewBox="0 0 498 610" fill="none" xmlns="http://www.w3.org/2000/svg">
<path fill-rule="evenodd" clip-rule="evenodd" d="M369.756 438.334H128.523C74.0774 438.334 30.0001 394.201 30.0001 339.811V98.5226C29.9446 44.1328 74.0774 0 128.523 0H369.756C424.201 0 468.279 44.1328 468.279 98.5226V339.756C468.279 394.201 424.201 438.334 369.756 438.334Z" fill="#1126CA"/>
<path d="M366.786 108.585C343.262 85.1373 312.862 69.7939 280.006 64.786C247.149 59.778 213.55 65.3666 184.093 80.7392C154.636 96.1118 130.856 120.467 116.212 150.264C101.567 180.06 96.8207 213.745 102.663 246.421C108.505 279.097 124.631 309.06 148.697 331.954C172.762 354.848 203.512 369.479 236.477 373.721C269.441 377.962 302.9 371.593 331.991 355.539C361.081 339.484 384.286 314.582 398.231 284.453L348.836 261.688C339.091 282.797 322.416 299.947 301.575 310.295C280.733 320.644 256.977 323.57 234.242 318.588C211.507 313.606 191.16 301.016 176.572 282.903C161.983 264.791 154.03 242.244 154.03 219C154.03 195.755 161.983 173.208 176.572 155.096C191.16 136.984 211.507 124.394 234.242 119.412C256.977 114.43 280.733 117.356 301.575 127.704C322.416 138.053 339.091 155.203 348.836 176.312L398.231 153.533C390.482 136.818 379.837 121.602 366.786 108.585Z" fill="white"/>
<path d="M289.865 185.728C282.659 178.665 273.348 174.044 263.285 172.537C253.222 171.03 242.932 172.715 233.911 177.347C224.89 181.979 217.608 189.318 213.123 198.295C208.639 207.272 207.186 217.42 208.976 227.264C210.766 237.108 215.705 246.134 223.075 253.031C230.446 259.928 239.863 264.336 249.959 265.614C260.055 266.893 270.302 264.974 279.212 260.138C288.121 255.302 295.229 247.8 299.5 238.724L348.748 261.056C354.994 247.885 358.231 233.531 358.231 219C358.231 204.47 354.994 190.116 348.748 176.945L299.5 199.277C297.126 194.238 293.864 189.651 289.865 185.728Z" fill="white"/>
<!-- <path d="M48.6931 497.003C61.8901 497.003 72.2754 504.417 73.6784 515.253H93.0689C90.4056 494.898 72.4351 481 48.7102 481C23.0462 481 0 497.847 0 531.256C0 564.665 22.5957 581.511 48.7102 581.511C72.8571 581.511 90.8219 567.619 92.7895 547.259H74.2544C72.5435 557.929 62.1809 565.372 48.7045 565.372C31.5952 565.372 18.6606 553.578 18.6606 531.256C18.6606 508.934 31.5667 497.003 48.6931 497.003Z" fill="white"/> -->
<!-- <path d="M130.356 508.49C111.969 508.49 100.038 519.44 99.1941 533.476H114.638C114.918 527.162 120.393 521.402 129.517 521.402C138.642 521.402 143.975 526.318 143.975 533.196C143.975 536.002 142.292 537.97 138.779 537.97H125.725C109.865 537.97 99.1941 546.524 99.1941 560.291C99.1941 572.502 108.741 581.484 122.776 581.484C132.882 581.484 141.026 576.853 143.975 569.839V580.366H160.942V534.878C160.942 518.876 148.326 508.49 130.356 508.49ZM143.975 550.465C143.975 561.136 137.662 568.715 126.866 568.715C120.41 568.715 115.916 565.071 115.916 559.59C115.916 553.408 120.832 549.324 128.132 549.324H143.992L143.975 550.465Z" fill="white"/> -->
<!-- <path d="M211.762 508.49C202.357 508.49 194.653 512.42 190.421 518.454V509.614H173.312V609.002H190.421V572.639C194.356 578.119 201.935 581.49 210.501 581.49C231.272 581.49 244.612 566.605 244.612 544.99C244.612 523.375 232.116 508.49 211.762 508.49ZM208.534 566.582C196.882 566.582 189.303 558.027 189.303 544.967C189.303 531.907 196.882 523.347 208.534 523.347C219.906 523.347 227.485 531.901 227.485 544.967C227.485 558.033 219.906 566.582 208.534 566.582Z" fill="white"/> -->
<!-- <path d="M277.747 488.271H260.478V509.607H246.585V524.07H260.478V555.654C260.478 571.377 270.589 580.365 286.033 580.365H297.4V564.779H287.995C281.539 564.779 277.73 561.129 277.73 553.943V524.07H297.383V509.607H277.747V488.271Z" fill="white"/> -->
<!-- <path d="M352.931 548.217C352.931 558.603 346.195 566.188 336.506 566.188C327.666 566.188 321.769 559.447 321.769 549.757V509.607H304.5V553.407C304.5 569.975 314.891 581.484 330.894 581.484C341 581.484 349.007 577.132 352.931 569.416V580.366H370.2V509.607H352.931V548.217Z" fill="white"/> -->
<!-- <path d="M400.056 522.097V509.607H382.792V580.366H400.061V546.951C400.061 533.475 404.413 524.071 415.363 524.071H426.455V509.613H418.152C409.027 509.613 403.563 513.121 400.056 522.097Z" fill="white"/> -->
<!-- <path d="M464.062 567.152C453.117 567.152 445.812 559.852 444.551 548.48H496.775C496.911 547.077 497.054 544.973 497.054 542.583C497.054 525.736 486.383 508.473 462.659 508.473C439.498 508.473 427.984 526.015 427.984 544.687C427.984 563.217 440.901 581.467 464.062 581.467C481.473 581.467 494.664 571.771 497.333 556.761H480.486C478.667 563.519 472.901 567.152 464.062 567.152ZM462.636 521.402C472.901 521.402 479.061 528.143 479.745 537.125H444.956C446.798 526.455 452.975 521.402 462.636 521.402Z" fill="white"/> -->

</svg>
