{
  "asset": {
    "generator": "Khronos glTF Blender I/O v1.7.33",
    "version": "2.0"
  },
  "scene": 0,
  "scenes": [
    {
      "name": "Scene",
      "nodes": [
        17
      ]
    }
  ],
  "nodes": [
    {
      "mesh": 0,
      "name": "Body1__0",
      "translation": [
        -3.8271729946136475,
        0,
        0
      ],
      "rotation": [
        0,
        0,
        0,
        1
      ],
      "scale": [
        1,
        1,
        1
      ]
    },
    {
      "mesh": 1,
      "name": "Body1_Rubber - Soft_0",
      "translation": [
        -3.462862253189087,
        0,
        0
      ],
      "rotation": [
        0,
        0,
        0,
        1
      ],
      "scale": [
        1,
        1,
        1
      ]
    },
    {
      "mesh": 2,
      "name": "Body1_Rubber - Soft_0.001",
      "translation": [
        -1.6149990558624268,
        0,
        0.002187499310821295
      ],
      "rotation": [
        0,
        0,
        0,
        1
      ],
      "scale": [
        1,
        1,
        1
      ]
    },
    {
      "mesh": 3,
      "name": "Body1_Stainless Steel - Polished_0",
      "translation": [
        -3.929976224899292,
        0,
        0
      ],
      "rotation": [
        0,
        0,
        0,
        1
      ],
      "scale": [
        1,
        1,
        1
      ]
    },
    {
      "mesh": 4,
      "name": "Body1_Steel - Satin_0.001",
      "translation": [
        -3.9758830070495605,
        0,
        0
      ],
      "rotation": [
        0,
        0,
        0,
        1
      ],
      "scale": [
        1,
        1,
        1
      ]
    },
    {
      "children": [
        0,
        1,
        2,
        3,
        4
      ],
      "name": "Body1.003",
      "scale": [
        10,
        10,
        10
      ],
      "translation": [
        0,
        0,
        0
      ],
      "rotation": [
        0,
        0,
        0,
        1
      ]
    },
    {
      "mesh": 5,
      "name": "Body1_Plastic - Glossy (White)_0",
      "translation": [
        -3.9300029277801514,
        0.024999769404530525,
        0
      ],
      "rotation": [
        0,
        0,
        0,
        1
      ],
      "scale": [
        1,
        1,
        1
      ]
    },
    {
      "children": [
        6
      ],
      "name": "Body1.001",
      "scale": [
        10,
        10,
        10
      ],
      "translation": [
        0,
        0,
        0
      ],
      "rotation": [
        0,
        0,
        0,
        1
      ]
    },
    {
      "children": [
        7
      ],
      "name": "Pin Insert v2"
    },
    {
      "children": [
        8
      ],
      "name": "Pin Insert v2:1",
      "translation": [
        0,
        -0.75,
        0
      ],
      "rotation": [
        0,
        0,
        0,
        1
      ],
      "scale": [
        1,
        1,
        1
      ]
    },
    {
      "mesh": 6,
      "name": "Body1_Plastic - Glossy (White)_0.001",
      "translation": [
        -3.9300029277801514,
        0.024999769404530525,
        0
      ],
      "rotation": [
        0,
        0,
        0,
        1
      ],
      "scale": [
        1,
        1,
        1
      ]
    },
    {
      "children": [
        10
      ],
      "name": "Body1.002",
      "scale": [
        10,
        10,
        10
      ],
      "translation": [
        0,
        0,
        0
      ],
      "rotation": [
        0,
        0,
        0,
        1
      ]
    },
    {
      "children": [
        11
      ],
      "name": "Pin Insert v2.001"
    },
    {
      "children": [
        12
      ],
      "name": "Pin Insert v2:2",
      "translation": [
        0,
        0.25,
        0
      ],
      "rotation": [
        0,
        0,
        0,
        1
      ],
      "scale": [
        1,
        1,
        1
      ]
    },
    {
      "children": [
        5,
        9,
        13
      ],
      "name": "Dongle v9"
    },
    {
      "children": [
        14
      ],
      "name": "RootNode"
    },
    {
      "children": [
        15
      ],
      "name": "35430bf57b9647e79b0d58504c4bd5a7.fbx",
      "rotation": [
        0.7071068286895752,
        0,
        0,
        0.7071068286895752
      ],
      "translation": [
        0,
        0,
        0
      ],
      "scale": [
        1,
        1,
        1
      ]
    },
    {
      "children": [
        16
      ],
      "name": "Sketchfab_model",
      "rotation": [
        -0.7071068286895752,
        0.7071068286895752,
        0,
        0
      ],
      "translation": [
        0,
        -25.31100082397461,
        0
      ],
      "scale": [
        1,
        1,
        1
      ]
    }
  ],
  "materials": [
    {
      "doubleSided": true,
      "name": "Body1__0",
      "pbrMetallicRoughness": {
        "metallicFactor": 0,
        "roughnessFactor": 0.1470644176006317,
        "baseColorFactor": [
          1,
          1,
          1,
          1
        ]
      },
      "emissiveFactor": [
        0,
        0,
        0
      ],
      "alphaMode": "OPAQUE"
    },
    {
      "doubleSided": true,
      "name": "Rubber_-_Soft",
      "pbrMetallicRoughness": {
        "baseColorFactor": [
          0.7019609808921814,
          0.7019609808921814,
          0.7019609808921814,
          1
        ],
        "metallicFactor": 0,
        "roughnessFactor": 0.9577051401138306
      },
      "emissiveFactor": [
        0,
        0,
        0
      ],
      "alphaMode": "OPAQUE"
    },
    {
      "doubleSided": true,
      "name": "Stainless_Steel_-_Polished",
      "pbrMetallicRoughness": {
        "baseColorFactor": [
          0.22885540127754211,
          0.22885540127754211,
          0.22885540127754211,
          1
        ],
        "metallicFactor": 0.7374120950698853,
        "roughnessFactor": 0.4942048192024231
      },
      "emissiveFactor": [
        0,
        0,
        0
      ],
      "alphaMode": "OPAQUE"
    },
    {
      "doubleSided": true,
      "name": "Steel_-_Satin",
      "pbrMetallicRoughness": {
        "baseColorFactor": [
          0.5313602685928345,
          0.5313602685928345,
          0.5313602685928345,
          1
        ],
        "metallicFactor": 0.8042941093444824,
        "roughnessFactor": 1
      },
      "emissiveFactor": [
        0,
        0,
        0
      ],
      "alphaMode": "OPAQUE"
    },
    {
      "doubleSided": true,
      "name": "Plastic_-_Glossy_White",
      "pbrMetallicRoughness": {
        "baseColorFactor": [
          0.9647060036659241,
          0.9647060036659241,
          0.9529410004615784,
          1
        ],
        "metallicFactor": 0,
        "roughnessFactor": 0.15314459800720215
      },
      "emissiveFactor": [
        0,
        0,
        0
      ],
      "alphaMode": "OPAQUE"
    }
  ],
  "meshes": [
    {
      "name": "Body1__0",
      "primitives": [
        {
          "attributes": {
            "POSITION": 0,
            "NORMAL": 1,
            "TEXCOORD_0": 2
          },
          "indices": 3,
          "material": 0,
          "mode": 4
        }
      ]
    },
    {
      "name": "Body1_Rubber - Soft_0",
      "primitives": [
        {
          "attributes": {
            "POSITION": 4,
            "NORMAL": 5,
            "TEXCOORD_0": 6
          },
          "indices": 7,
          "material": 1,
          "mode": 4
        }
      ]
    },
    {
      "name": "Body1_Rubber - Soft_0.001",
      "primitives": [
        {
          "attributes": {
            "POSITION": 8,
            "NORMAL": 9,
            "TEXCOORD_0": 10
          },
          "indices": 11,
          "material": 1,
          "mode": 4
        }
      ]
    },
    {
      "name": "Body1_Stainless Steel - Polished_0",
      "primitives": [
        {
          "attributes": {
            "POSITION": 12,
            "NORMAL": 13,
            "TEXCOORD_0": 14
          },
          "indices": 15,
          "material": 2,
          "mode": 4
        }
      ]
    },
    {
      "name": "Body1_Steel - Satin_0.001",
      "primitives": [
        {
          "attributes": {
            "POSITION": 16,
            "NORMAL": 17,
            "TEXCOORD_0": 18
          },
          "indices": 19,
          "material": 3,
          "mode": 4
        }
      ]
    },
    {
      "name": "Body1_Plastic - Glossy (White)_0",
      "primitives": [
        {
          "attributes": {
            "POSITION": 20,
            "NORMAL": 21,
            "TEXCOORD_0": 22
          },
          "indices": 23,
          "material": 4,
          "mode": 4
        }
      ]
    },
    {
      "name": "Body1_Plastic - Glossy (White)_0.001",
      "primitives": [
        {
          "attributes": {
            "POSITION": 24,
            "NORMAL": 25,
            "TEXCOORD_0": 26
          },
          "indices": 23,
          "material": 4,
          "mode": 4
        }
      ]
    }
  ],
  "accessors": [
    {
      "bufferView": 0,
      "componentType": 5126,
      "count": 4064,
      "max": [
        1.8271729946136475,
        0.2625001072883606,
        0.4575013518333435
      ],
      "min": [
        -0.23282694816589355,
        -0.2624998688697815,
        -0.4574986696243286
      ],
      "type": "VEC3",
      "byteOffset": 0
    },
    {
      "bufferView": 1,
      "componentType": 5126,
      "count": 4064,
      "type": "VEC3",
      "byteOffset": 0
    },
    {
      "bufferView": 2,
      "componentType": 5126,
      "count": 4064,
      "type": "VEC2",
      "byteOffset": 0
    },
    {
      "bufferView": 3,
      "componentType": 5123,
      "count": 9966,
      "type": "SCALAR",
      "byteOffset": 0
    },
    {
      "bufferView": 4,
      "componentType": 5126,
      "count": 294,
      "max": [
        0.0278623104095459,
        0.22750000655651093,
        0.42250001430511475
      ],
      "min": [
        -0.012137651443481445,
        -0.22750000655651093,
        -0.42250001430511475
      ],
      "type": "VEC3",
      "byteOffset": 0
    },
    {
      "bufferView": 5,
      "componentType": 5126,
      "count": 294,
      "type": "VEC3",
      "byteOffset": 0
    },
    {
      "bufferView": 6,
      "componentType": 5126,
      "count": 294,
      "type": "VEC2",
      "byteOffset": 0
    },
    {
      "bufferView": 7,
      "componentType": 5123,
      "count": 606,
      "type": "SCALAR",
      "byteOffset": 0
    },
    {
      "bufferView": 8,
      "componentType": 5126,
      "count": 274,
      "max": [
        0.16499900817871094,
        0.17499999701976776,
        0.17281249165534973
      ],
      "min": [
        -0.38500094413757324,
        -0.17499999701976776,
        -0.1771875023841858
      ],
      "type": "VEC3",
      "byteOffset": 0
    },
    {
      "bufferView": 9,
      "componentType": 5126,
      "count": 274,
      "type": "VEC3",
      "byteOffset": 0
    },
    {
      "bufferView": 10,
      "componentType": 5126,
      "count": 274,
      "type": "VEC2",
      "byteOffset": 0
    },
    {
      "bufferView": 11,
      "componentType": 5123,
      "count": 564,
      "type": "SCALAR",
      "byteOffset": 0
    },
    {
      "bufferView": 12,
      "componentType": 5126,
      "count": 1202,
      "max": [
        0.07997632026672363,
        0.07500000298023224,
        0.26249998807907104
      ],
      "min": [
        -0.08002400398254395,
        -0.07500000298023224,
        -0.26249998807907104
      ],
      "type": "VEC3",
      "byteOffset": 0
    },
    {
      "bufferView": 13,
      "componentType": 5126,
      "count": 1202,
      "type": "VEC3",
      "byteOffset": 0
    },
    {
      "bufferView": 14,
      "componentType": 5126,
      "count": 1202,
      "type": "VEC2",
      "byteOffset": 0
    },
    {
      "bufferView": 15,
      "componentType": 5123,
      "count": 1632,
      "type": "SCALAR",
      "byteOffset": 0
    },
    {
      "bufferView": 16,
      "componentType": 5126,
      "count": 918,
      "max": [
        0.5008831024169922,
        0.07500001043081284,
        0.33000168204307556
      ],
      "min": [
        -0.11411714553833008,
        -0.07499999552965164,
        -0.32999834418296814
      ],
      "type": "VEC3",
      "byteOffset": 0
    },
    {
      "bufferView": 17,
      "componentType": 5126,
      "count": 918,
      "type": "VEC3",
      "byteOffset": 0
    },
    {
      "bufferView": 18,
      "componentType": 5126,
      "count": 918,
      "type": "VEC2",
      "byteOffset": 0
    },
    {
      "bufferView": 19,
      "componentType": 5123,
      "count": 2988,
      "type": "SCALAR",
      "byteOffset": 0
    },
    {
      "bufferView": 20,
      "componentType": 5126,
      "count": 2722,
      "max": [
        0.1300029754638672,
        0.025000231340527534,
        0.2999984323978424
      ],
      "min": [
        -0.12999701499938965,
        -0.024999769404530525,
        -0.3000015914440155
      ],
      "type": "VEC3",
      "byteOffset": 0
    },
    {
      "bufferView": 21,
      "componentType": 5126,
      "count": 2722,
      "type": "VEC3",
      "byteOffset": 0
    },
    {
      "bufferView": 22,
      "componentType": 5126,
      "count": 2722,
      "type": "VEC2",
      "byteOffset": 0
    },
    {
      "bufferView": 23,
      "componentType": 5123,
      "count": 5592,
      "type": "SCALAR",
      "byteOffset": 0
    },
    {
      "bufferView": 24,
      "componentType": 5126,
      "count": 2722,
      "max": [
        0.1300029754638672,
        0.025000231340527534,
        0.2999984323978424
      ],
      "min": [
        -0.12999701499938965,
        -0.024999769404530525,
        -0.3000015914440155
      ],
      "type": "VEC3",
      "byteOffset": 0
    },
    {
      "bufferView": 25,
      "componentType": 5126,
      "count": 2722,
      "type": "VEC3",
      "byteOffset": 0
    },
    {
      "bufferView": 26,
      "componentType": 5126,
      "count": 2722,
      "type": "VEC2",
      "byteOffset": 0
    }
  ],
  "bufferViews": [
    {
      "buffer": 0,
      "byteLength": 48768,
      "byteOffset": 0,
      "byteStride": 12,
      "target": 34962
    },
    {
      "buffer": 0,
      "byteLength": 48768,
      "byteOffset": 48768,
      "byteStride": 12,
      "target": 34962
    },
    {
      "buffer": 0,
      "byteLength": 32512,
      "byteOffset": 97536,
      "byteStride": 8,
      "target": 34962
    },
    {
      "buffer": 0,
      "byteLength": 19932,
      "byteOffset": 130048,
      "target": 34963
    },
    {
      "buffer": 0,
      "byteLength": 3528,
      "byteOffset": 149984,
      "byteStride": 12,
      "target": 34962
    },
    {
      "buffer": 0,
      "byteLength": 3528,
      "byteOffset": 153512,
      "byteStride": 12,
      "target": 34962
    },
    {
      "buffer": 0,
      "byteLength": 2352,
      "byteOffset": 157040,
      "byteStride": 8,
      "target": 34962
    },
    {
      "buffer": 0,
      "byteLength": 1212,
      "byteOffset": 159392,
      "target": 34963
    },
    {
      "buffer": 0,
      "byteLength": 3288,
      "byteOffset": 160608,
      "byteStride": 12,
      "target": 34962
    },
    {
      "buffer": 0,
      "byteLength": 3288,
      "byteOffset": 163896,
      "byteStride": 12,
      "target": 34962
    },
    {
      "buffer": 0,
      "byteLength": 2192,
      "byteOffset": 167184,
      "byteStride": 8,
      "target": 34962
    },
    {
      "buffer": 0,
      "byteLength": 1128,
      "byteOffset": 169376,
      "target": 34963
    },
    {
      "buffer": 0,
      "byteLength": 14424,
      "byteOffset": 170504,
      "byteStride": 12,
      "target": 34962
    },
    {
      "buffer": 0,
      "byteLength": 14424,
      "byteOffset": 184928,
      "byteStride": 12,
      "target": 34962
    },
    {
      "buffer": 0,
      "byteLength": 9616,
      "byteOffset": 199352,
      "byteStride": 8,
      "target": 34962
    },
    {
      "buffer": 0,
      "byteLength": 3264,
      "byteOffset": 208968,
      "target": 34963
    },
    {
      "buffer": 0,
      "byteLength": 11016,
      "byteOffset": 212232,
      "byteStride": 12,
      "target": 34962
    },
    {
      "buffer": 0,
      "byteLength": 11016,
      "byteOffset": 223248,
      "byteStride": 12,
      "target": 34962
    },
    {
      "buffer": 0,
      "byteLength": 7344,
      "byteOffset": 234264,
      "byteStride": 8,
      "target": 34962
    },
    {
      "buffer": 0,
      "byteLength": 5976,
      "byteOffset": 241608,
      "target": 34963
    },
    {
      "buffer": 0,
      "byteLength": 32664,
      "byteOffset": 247584,
      "byteStride": 12,
      "target": 34962
    },
    {
      "buffer": 0,
      "byteLength": 32664,
      "byteOffset": 280248,
      "byteStride": 12,
      "target": 34962
    },
    {
      "buffer": 0,
      "byteLength": 21776,
      "byteOffset": 312912,
      "byteStride": 8,
      "target": 34962
    },
    {
      "buffer": 0,
      "byteLength": 11184,
      "byteOffset": 334688,
      "target": 34963
    },
    {
      "buffer": 0,
      "byteLength": 32664,
      "byteOffset": 345872,
      "byteStride": 12,
      "target": 34962
    },
    {
      "buffer": 0,
      "byteLength": 32664,
      "byteOffset": 378536,
      "byteStride": 12,
      "target": 34962
    },
    {
      "buffer": 0,
      "byteLength": 21776,
      "byteOffset": 411200,
      "byteStride": 8,
      "target": 34962
    }
  ],
  "buffers": [
    {
      "name": "lightning_Draco",
      "byteLength": 432976,
      "uri": "data:application/octet-stream;base64,"
    }
  ]
}
